<mxfile host="Electron" modified="2023-11-15T08:33:39.400Z" agent="Mozilla/5.0 (X11; Linux x86_64) AppleWebKit/537.36 (KHTML, like Gecko) draw.io/22.0.3 Chrome/114.0.5735.289 Electron/25.9.4 Safari/537.36" etag="hShyEnF4k7yal3sJ1QsZ" version="22.0.3" type="device">
  <diagram name="第 1 页" id="EGpAt80f94tZLr3EiNqv">
    <mxGraphModel dx="2722" dy="1406" grid="1" gridSize="10" guides="1" tooltips="1" connect="1" arrows="1" fold="1" page="1" pageScale="1" pageWidth="827" pageHeight="1169" math="0" shadow="0">
      <root>
        <mxCell id="0" />
        <mxCell id="1" parent="0" />
        <mxCell id="rUnyct3Vfx2vrGN09Ef4-89" value="" style="rounded=1;whiteSpace=wrap;html=1;" vertex="1" parent="1">
          <mxGeometry x="40" y="280" width="200" height="280" as="geometry" />
        </mxCell>
        <mxCell id="rUnyct3Vfx2vrGN09Ef4-90" value="" style="rounded=0;whiteSpace=wrap;html=1;" vertex="1" parent="1">
          <mxGeometry x="80" y="460" width="80" height="40" as="geometry" />
        </mxCell>
        <mxCell id="rUnyct3Vfx2vrGN09Ef4-98" value="" style="endArrow=classic;html=1;rounded=0;exitX=1;exitY=0.5;exitDx=0;exitDy=0;" edge="1" parent="1" source="rUnyct3Vfx2vrGN09Ef4-90">
          <mxGeometry width="50" height="50" relative="1" as="geometry">
            <mxPoint x="200" y="750" as="sourcePoint" />
            <mxPoint x="360" y="480" as="targetPoint" />
          </mxGeometry>
        </mxCell>
        <mxCell id="rUnyct3Vfx2vrGN09Ef4-99" value="" style="rounded=0;whiteSpace=wrap;html=1;" vertex="1" parent="1">
          <mxGeometry x="90" y="470" width="80" height="40" as="geometry" />
        </mxCell>
        <mxCell id="rUnyct3Vfx2vrGN09Ef4-100" value="" style="endArrow=classic;html=1;rounded=0;exitX=1;exitY=0.5;exitDx=0;exitDy=0;" edge="1" parent="1" source="rUnyct3Vfx2vrGN09Ef4-99">
          <mxGeometry width="50" height="50" relative="1" as="geometry">
            <mxPoint x="210" y="760" as="sourcePoint" />
            <mxPoint x="360" y="490" as="targetPoint" />
          </mxGeometry>
        </mxCell>
        <mxCell id="rUnyct3Vfx2vrGN09Ef4-101" value="" style="rounded=0;whiteSpace=wrap;html=1;" vertex="1" parent="1">
          <mxGeometry x="100" y="480" width="80" height="40" as="geometry" />
        </mxCell>
        <mxCell id="rUnyct3Vfx2vrGN09Ef4-102" value="" style="endArrow=classic;html=1;rounded=0;exitX=1;exitY=0.5;exitDx=0;exitDy=0;" edge="1" parent="1" source="rUnyct3Vfx2vrGN09Ef4-101">
          <mxGeometry width="50" height="50" relative="1" as="geometry">
            <mxPoint x="220" y="770" as="sourcePoint" />
            <mxPoint x="360" y="500" as="targetPoint" />
          </mxGeometry>
        </mxCell>
        <mxCell id="rUnyct3Vfx2vrGN09Ef4-103" value="" style="rounded=0;whiteSpace=wrap;html=1;" vertex="1" parent="1">
          <mxGeometry x="110" y="490" width="80" height="40" as="geometry" />
        </mxCell>
        <mxCell id="rUnyct3Vfx2vrGN09Ef4-104" value="" style="endArrow=classic;html=1;rounded=0;exitX=1;exitY=0.5;exitDx=0;exitDy=0;" edge="1" parent="1" source="rUnyct3Vfx2vrGN09Ef4-103">
          <mxGeometry width="50" height="50" relative="1" as="geometry">
            <mxPoint x="230" y="780" as="sourcePoint" />
            <mxPoint x="360" y="510" as="targetPoint" />
          </mxGeometry>
        </mxCell>
        <mxCell id="rUnyct3Vfx2vrGN09Ef4-105" value="" style="rounded=0;whiteSpace=wrap;html=1;" vertex="1" parent="1">
          <mxGeometry x="120" y="500" width="80" height="40" as="geometry" />
        </mxCell>
        <mxCell id="rUnyct3Vfx2vrGN09Ef4-106" value="" style="endArrow=classic;html=1;rounded=0;exitX=1;exitY=0.5;exitDx=0;exitDy=0;" edge="1" parent="1" source="rUnyct3Vfx2vrGN09Ef4-105">
          <mxGeometry width="50" height="50" relative="1" as="geometry">
            <mxPoint x="240" y="790" as="sourcePoint" />
            <mxPoint x="360" y="520" as="targetPoint" />
          </mxGeometry>
        </mxCell>
        <mxCell id="rUnyct3Vfx2vrGN09Ef4-107" value="" style="rounded=0;whiteSpace=wrap;html=1;" vertex="1" parent="1">
          <mxGeometry x="130" y="510" width="80" height="40" as="geometry" />
        </mxCell>
        <mxCell id="rUnyct3Vfx2vrGN09Ef4-108" value="" style="endArrow=classic;html=1;rounded=0;exitX=1;exitY=0.5;exitDx=0;exitDy=0;" edge="1" parent="1" source="rUnyct3Vfx2vrGN09Ef4-107">
          <mxGeometry width="50" height="50" relative="1" as="geometry">
            <mxPoint x="250" y="800" as="sourcePoint" />
            <mxPoint x="360" y="530" as="targetPoint" />
          </mxGeometry>
        </mxCell>
        <mxCell id="rUnyct3Vfx2vrGN09Ef4-109" value="" style="rounded=1;whiteSpace=wrap;html=1;" vertex="1" parent="1">
          <mxGeometry x="40" y="600" width="200" height="280" as="geometry" />
        </mxCell>
        <mxCell id="rUnyct3Vfx2vrGN09Ef4-110" value="" style="rounded=0;whiteSpace=wrap;html=1;" vertex="1" parent="1">
          <mxGeometry x="80" y="780" width="80" height="40" as="geometry" />
        </mxCell>
        <mxCell id="rUnyct3Vfx2vrGN09Ef4-111" value="" style="endArrow=classic;html=1;rounded=0;exitX=1;exitY=0.5;exitDx=0;exitDy=0;" edge="1" parent="1" source="rUnyct3Vfx2vrGN09Ef4-110">
          <mxGeometry width="50" height="50" relative="1" as="geometry">
            <mxPoint x="200" y="1070" as="sourcePoint" />
            <mxPoint x="360" y="800" as="targetPoint" />
          </mxGeometry>
        </mxCell>
        <mxCell id="rUnyct3Vfx2vrGN09Ef4-112" value="" style="rounded=0;whiteSpace=wrap;html=1;" vertex="1" parent="1">
          <mxGeometry x="90" y="790" width="80" height="40" as="geometry" />
        </mxCell>
        <mxCell id="rUnyct3Vfx2vrGN09Ef4-113" value="" style="endArrow=classic;html=1;rounded=0;exitX=1;exitY=0.5;exitDx=0;exitDy=0;" edge="1" parent="1" source="rUnyct3Vfx2vrGN09Ef4-112">
          <mxGeometry width="50" height="50" relative="1" as="geometry">
            <mxPoint x="210" y="1080" as="sourcePoint" />
            <mxPoint x="360" y="810" as="targetPoint" />
          </mxGeometry>
        </mxCell>
        <mxCell id="rUnyct3Vfx2vrGN09Ef4-114" value="" style="rounded=0;whiteSpace=wrap;html=1;" vertex="1" parent="1">
          <mxGeometry x="100" y="800" width="80" height="40" as="geometry" />
        </mxCell>
        <mxCell id="rUnyct3Vfx2vrGN09Ef4-115" value="" style="endArrow=classic;html=1;rounded=0;exitX=1;exitY=0.5;exitDx=0;exitDy=0;" edge="1" parent="1" source="rUnyct3Vfx2vrGN09Ef4-114">
          <mxGeometry width="50" height="50" relative="1" as="geometry">
            <mxPoint x="220" y="1090" as="sourcePoint" />
            <mxPoint x="360" y="820" as="targetPoint" />
          </mxGeometry>
        </mxCell>
        <mxCell id="rUnyct3Vfx2vrGN09Ef4-116" value="" style="rounded=0;whiteSpace=wrap;html=1;" vertex="1" parent="1">
          <mxGeometry x="110" y="810" width="80" height="40" as="geometry" />
        </mxCell>
        <mxCell id="rUnyct3Vfx2vrGN09Ef4-117" value="" style="endArrow=classic;html=1;rounded=0;exitX=1;exitY=0.5;exitDx=0;exitDy=0;" edge="1" parent="1" source="rUnyct3Vfx2vrGN09Ef4-116">
          <mxGeometry width="50" height="50" relative="1" as="geometry">
            <mxPoint x="230" y="1100" as="sourcePoint" />
            <mxPoint x="360" y="830" as="targetPoint" />
          </mxGeometry>
        </mxCell>
        <mxCell id="rUnyct3Vfx2vrGN09Ef4-118" value="" style="rounded=0;whiteSpace=wrap;html=1;" vertex="1" parent="1">
          <mxGeometry x="120" y="820" width="80" height="40" as="geometry" />
        </mxCell>
        <mxCell id="rUnyct3Vfx2vrGN09Ef4-119" value="" style="endArrow=classic;html=1;rounded=0;exitX=1;exitY=0.5;exitDx=0;exitDy=0;" edge="1" parent="1" source="rUnyct3Vfx2vrGN09Ef4-118">
          <mxGeometry width="50" height="50" relative="1" as="geometry">
            <mxPoint x="240" y="1110" as="sourcePoint" />
            <mxPoint x="360" y="840" as="targetPoint" />
          </mxGeometry>
        </mxCell>
        <mxCell id="rUnyct3Vfx2vrGN09Ef4-120" value="" style="rounded=0;whiteSpace=wrap;html=1;" vertex="1" parent="1">
          <mxGeometry x="130" y="830" width="80" height="40" as="geometry" />
        </mxCell>
        <mxCell id="rUnyct3Vfx2vrGN09Ef4-121" value="" style="endArrow=classic;html=1;rounded=0;exitX=1;exitY=0.5;exitDx=0;exitDy=0;" edge="1" parent="1" source="rUnyct3Vfx2vrGN09Ef4-120">
          <mxGeometry width="50" height="50" relative="1" as="geometry">
            <mxPoint x="250" y="1120" as="sourcePoint" />
            <mxPoint x="360" y="850" as="targetPoint" />
          </mxGeometry>
        </mxCell>
        <mxCell id="rUnyct3Vfx2vrGN09Ef4-122" value="" style="html=1;shadow=0;dashed=0;align=center;verticalAlign=middle;shape=mxgraph.arrows2.bendArrow;dy=15;dx=38;notch=0;arrowHead=55;rounded=1;direction=south;rotation=90;" vertex="1" parent="1">
          <mxGeometry x="210" y="510" width="210" height="150" as="geometry" />
        </mxCell>
        <mxCell id="rUnyct3Vfx2vrGN09Ef4-126" value="" style="rounded=1;whiteSpace=wrap;html=1;" vertex="1" parent="1">
          <mxGeometry x="40" y="120" width="80" height="40" as="geometry" />
        </mxCell>
        <mxCell id="rUnyct3Vfx2vrGN09Ef4-128" value="" style="rounded=1;whiteSpace=wrap;html=1;" vertex="1" parent="1">
          <mxGeometry x="200" y="120" width="80" height="40" as="geometry" />
        </mxCell>
        <mxCell id="rUnyct3Vfx2vrGN09Ef4-129" value="" style="rounded=1;whiteSpace=wrap;html=1;" vertex="1" parent="1">
          <mxGeometry x="360" y="120" width="80" height="40" as="geometry" />
        </mxCell>
        <mxCell id="rUnyct3Vfx2vrGN09Ef4-130" value="" style="rounded=1;whiteSpace=wrap;html=1;" vertex="1" parent="1">
          <mxGeometry x="520" y="120" width="80" height="40" as="geometry" />
        </mxCell>
        <mxCell id="rUnyct3Vfx2vrGN09Ef4-131" value="" style="rounded=1;whiteSpace=wrap;html=1;" vertex="1" parent="1">
          <mxGeometry x="680" y="120" width="80" height="40" as="geometry" />
        </mxCell>
        <mxCell id="rUnyct3Vfx2vrGN09Ef4-133" value="Target&lt;br&gt;Parser" style="text;html=1;align=center;verticalAlign=middle;resizable=0;points=[];autosize=1;strokeColor=none;fillColor=none;" vertex="1" parent="1">
          <mxGeometry x="210" y="160" width="60" height="40" as="geometry" />
        </mxCell>
        <mxCell id="rUnyct3Vfx2vrGN09Ef4-134" value="Resource&lt;br&gt;Selector" style="text;html=1;align=center;verticalAlign=middle;resizable=0;points=[];autosize=1;strokeColor=none;fillColor=none;" vertex="1" parent="1">
          <mxGeometry x="365" y="160" width="70" height="40" as="geometry" />
        </mxCell>
        <mxCell id="rUnyct3Vfx2vrGN09Ef4-136" value="Downloader" style="text;html=1;align=center;verticalAlign=middle;resizable=0;points=[];autosize=1;strokeColor=none;fillColor=none;" vertex="1" parent="1">
          <mxGeometry x="515" y="165" width="90" height="30" as="geometry" />
        </mxCell>
        <mxCell id="rUnyct3Vfx2vrGN09Ef4-137" value="MultiMedia&lt;br&gt;Processor" style="text;html=1;align=center;verticalAlign=middle;resizable=0;points=[];autosize=1;strokeColor=none;fillColor=none;" vertex="1" parent="1">
          <mxGeometry x="680" y="160" width="80" height="40" as="geometry" />
        </mxCell>
        <mxCell id="rUnyct3Vfx2vrGN09Ef4-138" value="Command&lt;br&gt;Parser" style="text;html=1;align=center;verticalAlign=middle;resizable=0;points=[];autosize=1;strokeColor=none;fillColor=none;" vertex="1" parent="1">
          <mxGeometry x="40" y="160" width="80" height="40" as="geometry" />
        </mxCell>
        <mxCell id="rUnyct3Vfx2vrGN09Ef4-140" value="" style="shape=flexArrow;endArrow=classic;html=1;rounded=0;" edge="1" parent="1">
          <mxGeometry width="50" height="50" relative="1" as="geometry">
            <mxPoint x="125" y="139.66" as="sourcePoint" />
            <mxPoint x="195" y="139.66" as="targetPoint" />
          </mxGeometry>
        </mxCell>
        <mxCell id="rUnyct3Vfx2vrGN09Ef4-141" value="" style="shape=flexArrow;endArrow=classic;html=1;rounded=0;" edge="1" parent="1">
          <mxGeometry width="50" height="50" relative="1" as="geometry">
            <mxPoint x="285" y="140" as="sourcePoint" />
            <mxPoint x="355" y="140" as="targetPoint" />
          </mxGeometry>
        </mxCell>
        <mxCell id="rUnyct3Vfx2vrGN09Ef4-142" value="" style="shape=flexArrow;endArrow=classic;html=1;rounded=0;" edge="1" parent="1">
          <mxGeometry width="50" height="50" relative="1" as="geometry">
            <mxPoint x="445" y="139.86" as="sourcePoint" />
            <mxPoint x="515" y="139.86" as="targetPoint" />
          </mxGeometry>
        </mxCell>
        <mxCell id="rUnyct3Vfx2vrGN09Ef4-143" value="" style="shape=flexArrow;endArrow=classic;html=1;rounded=0;" edge="1" parent="1">
          <mxGeometry width="50" height="50" relative="1" as="geometry">
            <mxPoint x="605" y="139.76000000000002" as="sourcePoint" />
            <mxPoint x="675" y="139.76000000000002" as="targetPoint" />
          </mxGeometry>
        </mxCell>
        <mxCell id="rUnyct3Vfx2vrGN09Ef4-144" value="X" style="text;html=1;strokeColor=none;fillColor=none;align=center;verticalAlign=middle;whiteSpace=wrap;rounded=0;" vertex="1" parent="1">
          <mxGeometry x="110" y="280" width="60" height="30" as="geometry" />
        </mxCell>
        <mxCell id="rUnyct3Vfx2vrGN09Ef4-145" value="X+1" style="text;html=1;strokeColor=none;fillColor=none;align=center;verticalAlign=middle;whiteSpace=wrap;rounded=0;" vertex="1" parent="1">
          <mxGeometry x="110" y="600" width="60" height="30" as="geometry" />
        </mxCell>
      </root>
    </mxGraphModel>
  </diagram>
</mxfile>
